<svg width="503" height="204" viewBox="0 0 503 204" fill="none" xmlns="http://www.w3.org/2000/svg">
<mask id="mask0_1_290" style="mask-type:alpha" maskUnits="userSpaceOnUse" x="0" y="0" width="503" height="204">
<rect x="0.5" width="502.5" height="204" fill="url(#paint0_linear_1_290)"/>
</mask>
<g mask="url(#mask0_1_290)">
<g opacity="0.3">
<mask id="mask1_1_290" style="mask-type:luminance" maskUnits="userSpaceOnUse" x="0" y="-1" width="503" height="244">
<path d="M0.5 -0.00320435H503V242.657H0.5V-0.00320435Z" fill="white"/>
</mask>
<g mask="url(#mask1_1_290)">
<path d="M-2.72113 6.4391H3.72118V-0.00320435H-2.72113V6.4391ZM16.6058 6.4391H23.0481V-0.00320435H16.6058V6.4391Z" fill="#D9D9D9"/>
<path d="M35.9327 6.4391H42.375V-0.00320435H35.9327V6.4391Z" fill="#D9D9D9"/>
<path d="M55.2596 6.4391H61.702V-0.00320435H55.2596V6.4391Z" fill="#D9D9D9"/>
<path d="M74.5865 6.4391H81.0289V-0.00320435H74.5865V6.4391ZM93.9135 6.4391H100.356V-0.00320435H93.9135V6.4391Z" fill="#D9D9D9"/>
<path d="M113.24 6.4391H119.683V-0.00320435H113.24V6.4391Z" fill="#D9D9D9"/>
<path d="M132.567 6.4391H139.01V-0.00320435H132.567V6.4391Z" fill="#D9D9D9"/>
<path d="M151.894 6.4391H158.337V-0.00320435H151.894V6.4391Z" fill="#D9D9D9"/>
<path d="M171.221 6.4391H177.663V-0.00320435H171.221V6.4391Z" fill="#D9D9D9"/>
<path d="M190.548 6.4391H196.99V-0.00320435H190.548V6.4391Z" fill="#D9D9D9"/>
<path d="M209.875 6.4391H216.317V-0.00320435H209.875V6.4391Z" fill="#D9D9D9"/>
<path d="M229.202 6.4391H235.644V-0.00320435H229.202V6.4391Z" fill="#D9D9D9"/>
<path d="M248.529 6.4391H254.971V-0.00320435H248.529V6.4391Z" fill="#D9D9D9"/>
<path d="M267.856 6.4391H274.298V-0.00320435H267.856V6.4391Z" fill="#D9D9D9"/>
<path d="M287.183 6.4391H293.625V-0.00320435H287.183V6.4391Z" fill="#D9D9D9"/>
<path d="M306.51 6.4391H312.952V-0.00320435H306.51V6.4391Z" fill="#D9D9D9"/>
<path d="M325.837 6.4391H332.279V-0.00320435H325.837V6.4391ZM345.163 6.4391H351.606V-0.00320435H345.163V6.4391Z" fill="#D9D9D9"/>
<path d="M383.817 6.4391H390.26V-0.00320435H383.817V6.4391Z" fill="#D9D9D9"/>
<path d="M403.144 6.4391H409.587V-0.00320435H403.144V6.4391Z" fill="#D9D9D9"/>
<path d="M422.471 6.4391H428.913V-0.00320435H422.471V6.4391Z" fill="#D9D9D9"/>
<path d="M441.798 6.4391H448.24V-0.00320435H441.798V6.4391Z" fill="#D9D9D9"/>
<path d="M461.125 6.4391H467.567V-0.00320435H461.125V6.4391Z" fill="#D9D9D9"/>
<path d="M480.452 6.4391H486.894V-0.00320435H480.452V6.4391ZM499.779 6.4391H506.221V-0.00320435H499.779V6.4391Z" fill="#D9D9D9"/>
<path d="M-2.72113 30.0609H3.72118V23.6186H-2.72113V30.0609Z" fill="#D9D9D9"/>
<path d="M16.6058 30.0609H23.0481V23.6186H16.6058V30.0609Z" fill="#D9D9D9"/>
<path d="M35.9327 30.0609H42.375V23.6186H35.9327V30.0609Z" fill="#D9D9D9"/>
<path d="M55.2596 30.0609H61.702V23.6186H55.2596V30.0609ZM74.5866 30.0609H81.0289V23.6186H74.5866V30.0609Z" fill="#D9D9D9"/>
<path d="M93.9135 30.0609H100.356V23.6186H93.9135V30.0609Z" fill="#D9D9D9"/>
<path d="M113.24 30.0609H119.683V23.6186H113.24V30.0609Z" fill="#D9D9D9"/>
<path d="M132.567 30.0609H139.01V23.6186H132.567V30.0609Z" fill="#D9D9D9"/>
<path d="M151.894 30.0609H158.337V23.6186H151.894V30.0609Z" fill="#D9D9D9"/>
<path d="M171.221 30.0609H177.663V23.6186H171.221V30.0609Z" fill="#D9D9D9"/>
<path d="M190.548 30.0609H196.99V23.6186H190.548V30.0609ZM209.875 30.0609H216.317V23.6186H209.875V30.0609ZM229.202 30.0609H235.644V23.6186H229.202V30.0609Z" fill="#D9D9D9"/>
<path d="M248.529 30.0609H254.971V23.6186H248.529V30.0609Z" fill="#D9D9D9"/>
<path d="M287.183 30.0609H293.625V23.6186H287.183V30.0609ZM325.837 30.0609H332.279V23.6186H325.837V30.0609Z" fill="#D9D9D9"/>
<path d="M345.163 30.0609H351.606V23.6186H345.163V30.0609ZM364.49 30.0609H370.933V23.6186H364.49V30.0609ZM383.817 30.0609H390.26V23.6186H383.817V30.0609ZM403.144 30.0609H409.587V23.6186H403.144V30.0609Z" fill="#D9D9D9"/>
<path d="M422.471 30.0609H428.913V23.6186H422.471V30.0609Z" fill="#D9D9D9"/>
<path d="M441.798 30.0609H448.24V23.6186H441.798V30.0609Z" fill="#D9D9D9"/>
<path d="M461.125 30.0609H467.567V23.6186H461.125V30.0609Z" fill="#D9D9D9"/>
<path d="M480.452 30.0609H486.894V23.6186H480.452V30.0609ZM499.779 30.0609H506.221V23.6186H499.779V30.0609ZM-2.72113 53.6827H3.72118V47.2404H-2.72113V53.6827Z" fill="#D9D9D9"/>
<path d="M16.6058 53.6827H23.0481V47.2404H16.6058V53.6827Z" fill="#D9D9D9"/>
<path d="M35.9327 53.6827H42.375V47.2404H35.9327V53.6827Z" fill="#D9D9D9"/>
<path d="M55.2596 53.6827H61.702V47.2404H55.2596V53.6827Z" fill="#D9D9D9"/>
<path d="M74.5865 53.6827H81.0289V47.2404H74.5865V53.6827ZM93.9135 53.6827H100.356V47.2404H93.9135V53.6827ZM113.24 53.6827H119.683V47.2404H113.24V53.6827Z" fill="#D9D9D9"/>
<path d="M132.567 53.6827H139.01V47.2404H132.567V53.6827Z" fill="#D9D9D9"/>
<path d="M151.894 53.6827H158.337V47.2404H151.894V53.6827Z" fill="#D9D9D9"/>
<path d="M171.221 53.6827H177.663V47.2404H171.221V53.6827Z" fill="#D9D9D9"/>
<path d="M190.548 53.6827H196.99V47.2404H190.548V53.6827Z" fill="#D9D9D9"/>
<path d="M209.875 53.6827H216.317V47.2404H209.875V53.6827Z" fill="#D9D9D9"/>
<path d="M229.202 53.6827H235.644V47.2404H229.202V53.6827Z" fill="#D9D9D9"/>
<path d="M248.529 53.6827H254.971V47.2404H248.529V53.6827Z" fill="#D9D9D9"/>
<path d="M267.856 53.6827H274.298V47.2404H267.856V53.6827ZM287.183 53.6827H293.625V47.2404H287.183V53.6827ZM306.51 53.6827H312.952V47.2404H306.51V53.6827Z" fill="#D9D9D9"/>
<path d="M325.837 53.6827H332.279V47.2404H325.837V53.6827Z" fill="#D9D9D9"/>
<path d="M345.163 53.6827H351.606V47.2404H345.163V53.6827Z" fill="#D9D9D9"/>
<path d="M383.817 53.6827H390.26V47.2404H383.817V53.6827Z" fill="#D9D9D9"/>
<path d="M403.144 53.6827H409.587V47.2404H403.144V53.6827Z" fill="#D9D9D9"/>
<path d="M422.471 53.6827H428.913V47.2404H422.471V53.6827Z" fill="#D9D9D9"/>
<path d="M441.798 53.6827H448.24V47.2404H441.798V53.6827Z" fill="#D9D9D9"/>
<path d="M461.125 53.6827H467.567V47.2404H461.125V53.6827Z" fill="#D9D9D9"/>
<path d="M499.779 53.6827H506.221V47.2404H499.779V53.6827Z" fill="#D9D9D9"/>
<path d="M6.94232 77.3045H13.3846V70.8622H6.94232V77.3045Z" fill="#D9D9D9"/>
<path d="M26.2692 77.3045H32.7115V70.8622H26.2692V77.3045Z" fill="#D9D9D9"/>
<path d="M45.5962 77.3045H52.0385V70.8622H45.5962V77.3045Z" fill="#D9D9D9"/>
<path d="M64.9231 77.3045H71.3654V70.8622H64.9231V77.3045ZM84.25 77.3045H90.6923V70.8622H84.25V77.3045ZM103.577 77.3045H110.019V70.8622H103.577V77.3045Z" fill="#D9D9D9"/>
<path d="M122.904 77.3045H129.346V70.8622H122.904V77.3045Z" fill="#D9D9D9"/>
<path d="M161.558 77.3045H168V70.8622H161.558V77.3045Z" fill="#D9D9D9"/>
<path d="M180.885 77.3045H187.327V70.8622H180.885V77.3045ZM200.212 77.3045H206.654V70.8622H200.212V77.3045Z" fill="#D9D9D9"/>
<path d="M219.539 77.3045H225.981V70.8622H219.539V77.3045Z" fill="#D9D9D9"/>
<path d="M238.865 77.3045H245.308V70.8622H238.865V77.3045Z" fill="#D9D9D9"/>
<path d="M258.192 77.3045H264.635V70.8622H258.192V77.3045Z" fill="#D9D9D9"/>
<path d="M277.519 77.3045H283.962V70.8622H277.519V77.3045Z" fill="#D9D9D9"/>
<path d="M296.846 77.3045H303.288V70.8622H296.846V77.3045Z" fill="#D9D9D9"/>
<path d="M354.827 77.3045H361.269V70.8622H354.827V77.3045Z" fill="#D9D9D9"/>
<path d="M374.154 77.3045H380.596V70.8622H374.154V77.3045Z" fill="#D9D9D9"/>
<path d="M393.481 77.3045H399.923V70.8622H393.481V77.3045Z" fill="#D9D9D9"/>
<path d="M412.808 77.3045H419.25V70.8622H412.808V77.3045Z" fill="#D9D9D9"/>
<path d="M432.135 77.3045H438.577V70.8622H432.135V77.3045Z" fill="#D9D9D9"/>
<path d="M451.462 77.3045H457.904V70.8622H451.462V77.3045Z" fill="#D9D9D9"/>
<path d="M470.788 77.3045H477.231V70.8622H470.788V77.3045ZM490.115 77.3045H496.558V70.8622H490.115V77.3045ZM496.558 100.926H490.115V94.484H496.558V100.926Z" fill="#D9D9D9"/>
<path d="M477.231 100.926H470.788V94.484H477.231V100.926ZM457.904 100.926H451.462V94.484H457.904V100.926Z" fill="#D9D9D9"/>
<path d="M438.577 100.926H432.135V94.484H438.577V100.926ZM419.25 100.926H412.808V94.484H419.25V100.926Z" fill="#D9D9D9"/>
<path d="M399.923 100.926H393.481V94.484H399.923V100.926ZM380.596 100.926H374.154V94.484H380.596V100.926Z" fill="#D9D9D9"/>
<path d="M361.269 100.926H354.827V94.484H361.269V100.926ZM341.942 100.926H335.5V94.484H341.942V100.926Z" fill="#D9D9D9"/>
<path d="M303.288 100.926H296.846V94.484H303.288V100.926Z" fill="#D9D9D9"/>
<path d="M283.962 100.926H277.519V94.484H283.962V100.926Z" fill="#D9D9D9"/>
<path d="M264.635 100.926H258.192V94.484H264.635V100.926Z" fill="#D9D9D9"/>
<path d="M245.308 100.926H238.865V94.484H245.308V100.926ZM225.981 100.926H219.538V94.484H225.981V100.926ZM206.654 100.926H200.212V94.484H206.654V100.926Z" fill="#D9D9D9"/>
<path d="M187.327 100.926H180.885V94.484H187.327V100.926Z" fill="#D9D9D9"/>
<path d="M168 100.926H161.558V94.484H168V100.926ZM148.673 100.926H142.231V94.484H148.673V100.926Z" fill="#D9D9D9"/>
<path d="M129.346 100.926H122.904V94.484H129.346V100.926Z" fill="#D9D9D9"/>
<path d="M110.019 100.926H103.577V94.484H110.019V100.926Z" fill="#D9D9D9"/>
<path d="M90.6923 100.926H84.25V94.484H90.6923V100.926Z" fill="#D9D9D9"/>
<path d="M71.3654 100.926H64.9231V94.484H71.3654V100.926Z" fill="#D9D9D9"/>
<path d="M32.7116 100.926H26.2692V94.484H32.7116V100.926ZM13.3846 100.926H6.94232V94.484H13.3846V100.926Z" fill="#D9D9D9"/>
<path d="M-2.72113 118.106H3.72118V124.548H-2.72113V118.106Z" fill="#D9D9D9"/>
<path d="M16.6058 118.106H23.0481V124.548H16.6058V118.106Z" fill="#D9D9D9"/>
<path d="M35.9327 118.106H42.375V124.548H35.9327V118.106Z" fill="#D9D9D9"/>
<path d="M55.2596 118.106H61.702V124.548H55.2596V118.106ZM74.5866 118.106H81.0289V124.548H74.5866V118.106Z" fill="#D9D9D9"/>
<path d="M93.9135 118.106H100.356V124.548H93.9135V118.106Z" fill="#D9D9D9"/>
<path d="M113.24 118.106H119.683V124.548H113.24V118.106Z" fill="#D9D9D9"/>
<path d="M132.567 118.106H139.01V124.548H132.567V118.106ZM151.894 118.106H158.337V124.548H151.894V118.106Z" fill="#D9D9D9"/>
<path d="M171.221 118.106H177.663V124.548H171.221V118.106Z" fill="#D9D9D9"/>
<path d="M190.548 118.106H196.99V124.548H190.548V118.106Z" fill="#D9D9D9"/>
<path d="M229.202 118.106H235.644V124.548H229.202V118.106ZM248.529 118.106H254.971V124.548H248.529V118.106Z" fill="#D9D9D9"/>
<path d="M267.856 118.106H274.298V124.548H267.856V118.106Z" fill="#D9D9D9"/>
<path d="M287.183 118.106H293.625V124.548H287.183V118.106ZM306.51 118.106H312.952V124.548H306.51V118.106Z" fill="#D9D9D9"/>
<path d="M325.837 118.106H332.279V124.548H325.837V118.106Z" fill="#D9D9D9"/>
<path d="M345.163 118.106H351.606V124.548H345.163V118.106ZM364.49 118.106H370.933V124.548H364.49V118.106Z" fill="#D9D9D9"/>
<path d="M383.817 118.106H390.26V124.548H383.817V118.106Z" fill="#D9D9D9"/>
<path d="M403.144 118.106H409.587V124.548H403.144V118.106Z" fill="#D9D9D9"/>
<path d="M422.471 118.106H428.913V124.548H422.471V118.106Z" fill="#D9D9D9"/>
<path d="M441.798 118.106H448.24V124.548H441.798V118.106Z" fill="#D9D9D9"/>
<path d="M461.125 118.106H467.567V124.548H461.125V118.106Z" fill="#D9D9D9"/>
<path d="M480.452 118.106H486.894V124.548H480.452V118.106ZM499.779 118.106H506.221V124.548H499.779V118.106ZM506.221 148.17H499.779V141.728H506.221V148.17ZM486.894 148.17H480.452V141.728H486.894V148.17Z" fill="#D9D9D9"/>
<path d="M467.567 148.17H461.125V141.728H467.567V148.17Z" fill="#D9D9D9"/>
<path d="M448.24 148.17H441.798V141.728H448.24V148.17Z" fill="#D9D9D9"/>
<path d="M428.914 148.17H422.471V141.728H428.914V148.17ZM409.587 148.17H403.144V141.728H409.587V148.17Z" fill="#D9D9D9"/>
<path d="M390.26 148.17H383.817V141.728H390.26V148.17Z" fill="#D9D9D9"/>
<path d="M370.933 148.17H364.49V141.728H370.933V148.17Z" fill="#D9D9D9"/>
<path d="M351.606 148.17H345.163V141.728H351.606V148.17Z" fill="#D9D9D9"/>
<path d="M332.279 148.17H325.837V141.728H332.279V148.17Z" fill="#D9D9D9"/>
<path d="M312.952 148.17H306.51V141.728H312.952V148.17Z" fill="#D9D9D9"/>
<path d="M293.625 148.17H287.183V141.728H293.625V148.17Z" fill="#D9D9D9"/>
<path d="M274.298 148.17H267.856V141.728H274.298V148.17Z" fill="#D9D9D9"/>
<path d="M254.971 148.17H248.529V141.728H254.971V148.17Z" fill="#D9D9D9"/>
<path d="M235.644 148.17H229.202V141.728H235.644V148.17Z" fill="#D9D9D9"/>
<path d="M216.317 148.17H209.875V141.728H216.317V148.17Z" fill="#D9D9D9"/>
<path d="M196.99 148.17H190.548V141.728H196.99V148.17Z" fill="#D9D9D9"/>
<path d="M177.664 148.17H171.221V141.728H177.664V148.17ZM158.337 148.17H151.894V141.728H158.337V148.17Z" fill="#D9D9D9"/>
<path d="M119.683 148.17H113.24V141.728H119.683V148.17Z" fill="#D9D9D9"/>
<path d="M100.356 148.17H93.9135V141.728H100.356V148.17Z" fill="#D9D9D9"/>
<path d="M81.0289 148.17H74.5865V141.728H81.0289V148.17Z" fill="#D9D9D9"/>
<path d="M61.702 148.17H55.2596V141.728H61.702V148.17Z" fill="#D9D9D9"/>
<path d="M42.375 148.17H35.9327V141.728H42.375V148.17Z" fill="#D9D9D9"/>
<path d="M23.0481 148.17H16.6058V141.728H23.0481V148.17ZM3.72118 148.17H-2.72113V141.728H3.72118V148.17Z" fill="#D9D9D9"/>
<path d="M506.221 165.349H499.779V171.792H506.221V165.349Z" fill="#D9D9D9"/>
<path d="M486.894 165.349H480.452V171.792H486.894V165.349Z" fill="#D9D9D9"/>
<path d="M467.567 165.349H461.125V171.792H467.567V165.349Z" fill="#D9D9D9"/>
<path d="M448.24 165.349H441.798V171.792H448.24V165.349ZM428.913 165.349H422.471V171.792H428.913V165.349Z" fill="#D9D9D9"/>
<path d="M409.587 165.349H403.144V171.792H409.587V165.349Z" fill="#D9D9D9"/>
<path d="M390.26 165.349H383.817V171.792H390.26V165.349Z" fill="#D9D9D9"/>
<path d="M370.933 165.349H364.49V171.792H370.933V165.349Z" fill="#D9D9D9"/>
<path d="M351.606 165.349H345.163V171.792H351.606V165.349Z" fill="#D9D9D9"/>
<path d="M332.279 165.349H325.837V171.792H332.279V165.349Z" fill="#D9D9D9"/>
<path d="M312.952 165.349H306.51V171.792H312.952V165.349ZM293.625 165.349H287.183V171.792H293.625V165.349ZM274.298 165.349H267.856V171.792H274.298V165.349Z" fill="#D9D9D9"/>
<path d="M254.971 165.349H248.529V171.792H254.971V165.349Z" fill="#D9D9D9"/>
<path d="M216.317 165.349H209.875V171.792H216.317V165.349ZM177.663 165.349H171.221V171.792H177.663V165.349Z" fill="#D9D9D9"/>
<path d="M158.337 165.349H151.894V171.792H158.337V165.349ZM139.01 165.349H132.567V171.792H139.01V165.349ZM119.683 165.349H113.24V171.792H119.683V165.349ZM100.356 165.349H93.9135V171.792H100.356V165.349Z" fill="#D9D9D9"/>
<path d="M81.0289 165.349H74.5865V171.792H81.0289V165.349Z" fill="#D9D9D9"/>
<path d="M61.702 165.349H55.2596V171.792H61.702V165.349Z" fill="#D9D9D9"/>
<path d="M42.375 165.349H35.9327V171.792H42.375V165.349Z" fill="#D9D9D9"/>
<path d="M23.0481 165.349H16.6058V171.792H23.0481V165.349ZM3.72118 165.349H-2.72113V171.792H3.72118V165.349Z" fill="#D9D9D9"/>
<path d="M-2.72113 188.971H3.72118V195.413H-2.72113V188.971Z" fill="#D9D9D9"/>
<path d="M16.6058 188.971H23.0481V195.413H16.6058V188.971Z" fill="#D9D9D9"/>
<path d="M35.9327 188.971H42.375V195.413H35.9327V188.971Z" fill="#D9D9D9"/>
<path d="M55.2596 188.971H61.702V195.413H55.2596V188.971ZM74.5866 188.971H81.0289V195.413H74.5866V188.971Z" fill="#D9D9D9"/>
<path d="M93.9135 188.971H100.356V195.413H93.9135V188.971Z" fill="#D9D9D9"/>
<path d="M113.24 188.971H119.683V195.413H113.24V188.971Z" fill="#D9D9D9"/>
<path d="M132.567 188.971H139.01V195.413H132.567V188.971Z" fill="#D9D9D9"/>
<path d="M151.894 188.971H158.337V195.413H151.894V188.971Z" fill="#D9D9D9"/>
<path d="M171.221 188.971H177.663V195.413H171.221V188.971Z" fill="#D9D9D9"/>
<path d="M190.548 188.971H196.99V195.413H190.548V188.971ZM209.875 188.971H216.317V195.413H209.875V188.971ZM229.202 188.971H235.644V195.413H229.202V188.971Z" fill="#D9D9D9"/>
<path d="M248.529 188.971H254.971V195.413H248.529V188.971Z" fill="#D9D9D9"/>
<path d="M287.183 188.971H293.625V195.413H287.183V188.971ZM325.837 188.971H332.279V195.413H325.837V188.971Z" fill="#D9D9D9"/>
<path d="M345.163 188.971H351.606V195.413H345.163V188.971ZM364.49 188.971H370.933V195.413H364.49V188.971ZM383.817 188.971H390.26V195.413H383.817V188.971ZM403.144 188.971H409.587V195.413H403.144V188.971Z" fill="#D9D9D9"/>
<path d="M422.471 188.971H428.913V195.413H422.471V188.971Z" fill="#D9D9D9"/>
<path d="M441.798 188.971H448.24V195.413H441.798V188.971Z" fill="#D9D9D9"/>
<path d="M461.125 188.971H467.567V195.413H461.125V188.971Z" fill="#D9D9D9"/>
<path d="M480.452 188.971H486.894V195.413H480.452V188.971ZM499.779 188.971H506.221V195.413H499.779V188.971ZM506.221 212.593H499.779V219.035H506.221V212.593Z" fill="#D9D9D9"/>
</g>
</g>
</g>
<defs>
<linearGradient id="paint0_linear_1_290" x1="251.75" y1="0" x2="251.75" y2="204" gradientUnits="userSpaceOnUse">
<stop/>
<stop offset="0.85"/>
<stop offset="1" stop-opacity="0"/>
</linearGradient>
</defs>
</svg>
