<svg width="687" height="247" viewBox="0 0 687 247" fill="none" xmlns="http://www.w3.org/2000/svg">
<path d="M1 14.5837L22.9091 16.5576C24.6181 16.7115 26.3363 16.7115 28.0452 16.5576L45.6458 14.9719C48.5036 14.7144 51.3815 14.8881 54.1932 15.4875L74.0145 19.7137C77.0094 20.3523 80.0785 20.5074 83.1174 20.1738L101.667 18.1376C103.665 17.9182 105.679 17.9099 107.678 18.1127L153.229 22.7319C155.099 22.9216 156.982 22.9266 158.853 22.7469L177.837 20.9237C180.462 20.6716 183.107 20.7833 185.704 21.2559L218.284 27.1842C221.706 27.807 225.205 27.8019 228.626 27.1693L254.435 22.3959C257.965 21.7432 261.576 21.7587 265.101 22.4418L305.295 30.2319C308.619 30.8763 312.022 30.9269 315.363 30.3817L336.253 26.9721L362.259 25.3659C366.755 25.0882 371.254 25.8759 375.427 27.6716L389.182 33.5914C394.929 36.0645 401.255 36.6096 407.304 35.1527L419.722 32.1619C424.474 31.0175 429.417 31.104 434.13 32.4139L448.682 36.4583C452.894 37.6289 457.295 37.8241 461.584 37.0306L485.578 32.5925L499.801 30.7777C502.921 30.3797 506.08 30.4981 509.166 31.1287L530.43 35.4749C532.525 35.9032 534.657 36.0958 536.792 36.0495L561.41 35.5155C563.547 35.4691 565.674 35.1833 567.754 34.6627L591.794 28.6482C595.365 27.7545 599.062 27.5557 602.702 28.0615L625.826 31.2755L648.222 37.8384C651.793 38.8848 655.515 39.2286 659.204 38.8526L685.364 36.1859" stroke="url(#paint0_linear_1_249)" stroke-width="0.95993"/>
<path d="M1 17.3292L24.86 22.6072C28.2476 23.3565 31.7318 23.4856 35.1606 22.9889L46.4025 21.3602C49.7076 20.8813 53.0646 20.9838 56.338 21.6636L73.2309 25.1713C76.4278 25.8351 79.7051 25.9485 82.9362 25.5071L101.312 22.9966C103.577 22.6871 105.869 22.65 108.142 22.8858L153.302 27.5713C155.012 27.7487 156.734 27.7717 158.448 27.64L177.726 26.1588C181.993 25.8309 186.225 27.1749 189.616 29.9346C192.033 31.9018 194.895 33.1636 197.918 33.594L221.479 36.9484L244.499 36.9344C253.67 36.9288 262.349 41.3228 268.095 48.8814L301.873 93.3073C307.622 100.868 316.304 105.263 325.478 105.254L358.931 105.224C361.031 105.222 363.126 105.452 365.182 105.909L411.542 116.216C413.601 116.674 415.7 116.904 417.805 116.901L464.332 116.838C466.232 116.836 468.129 117.022 469.996 117.396L515.868 126.578C517.441 126.893 519.035 127.075 520.635 127.123L565.739 128.478C567.497 128.531 569.247 128.746 570.97 129.121L594.292 134.19L616.361 138.987C618.912 139.542 621.384 140.442 623.717 141.666L646.572 153.66C650.66 155.805 655.154 156.944 659.717 156.992L685.84 157.268" stroke="url(#paint1_linear_1_249)" stroke-width="0.95993"/>
<rect x="1" y="183" width="685.5" height="1" fill="#E4E5E1"/>
<rect x="31" width="1" height="184" fill="#E4E5E1"/>
<path d="M32 205.1C31.5533 205.1 31.1633 205.013 30.83 204.84C30.5033 204.66 30.25 204.41 30.07 204.09C29.89 203.763 29.8 203.383 29.8 202.95V199.75C29.8 199.31 29.89 198.93 30.07 198.61C30.25 198.29 30.5033 198.043 30.83 197.87C31.1633 197.69 31.5533 197.6 32 197.6C32.4533 197.6 32.8433 197.69 33.17 197.87C33.4967 198.043 33.75 198.29 33.93 198.61C34.11 198.93 34.2 199.31 34.2 199.75V202.95C34.2 203.383 34.11 203.763 33.93 204.09C33.75 204.41 33.4933 204.66 33.16 204.84C32.8333 205.013 32.4467 205.1 32 205.1ZM32 204.33C32.4 204.33 32.72 204.203 32.96 203.95C33.2067 203.69 33.33 203.357 33.33 202.95V199.75C33.33 199.343 33.2067 199.013 32.96 198.76C32.72 198.5 32.4 198.37 32 198.37C31.6 198.37 31.2767 198.5 31.03 198.76C30.79 199.013 30.67 199.343 30.67 199.75V202.95C30.67 203.357 30.79 203.69 31.03 203.95C31.2767 204.203 31.6 204.33 32 204.33ZM32 201.94C31.82 201.94 31.6733 201.883 31.56 201.77C31.4533 201.657 31.4 201.507 31.4 201.32C31.4 201.14 31.4533 200.997 31.56 200.89C31.6733 200.777 31.82 200.72 32 200.72C32.18 200.72 32.3233 200.777 32.43 200.89C32.5433 200.997 32.6 201.14 32.6 201.32C32.6 201.507 32.5433 201.657 32.43 201.77C32.3233 201.883 32.18 201.94 32 201.94Z" fill="#C1C1BE"/>
<path d="M185.77 205.1C185.33 205.1 184.943 205.013 184.61 204.84C184.283 204.66 184.03 204.413 183.85 204.1C183.67 203.787 183.58 203.42 183.58 203H184.48C184.48 203.407 184.593 203.727 184.82 203.96C185.053 204.187 185.373 204.3 185.78 204.3C186.193 204.3 186.513 204.18 186.74 203.94C186.967 203.7 187.08 203.387 187.08 203V202.48C187.08 202.067 186.967 201.747 186.74 201.52C186.513 201.293 186.193 201.18 185.78 201.18H185.03V200.28L186.84 198.52H183.88V197.7H187.75V198.6L185.8 200.49V200.38C186.467 200.38 186.997 200.57 187.39 200.95C187.783 201.33 187.98 201.84 187.98 202.48V203C187.98 203.42 187.887 203.787 187.7 204.1C187.52 204.413 187.263 204.66 186.93 204.84C186.597 205.013 186.21 205.1 185.77 205.1ZM192.876 205.1C192.429 205.1 192.039 205.013 191.706 204.84C191.379 204.66 191.126 204.41 190.946 204.09C190.766 203.763 190.676 203.383 190.676 202.95V199.75C190.676 199.31 190.766 198.93 190.946 198.61C191.126 198.29 191.379 198.043 191.706 197.87C192.039 197.69 192.429 197.6 192.876 197.6C193.329 197.6 193.719 197.69 194.046 197.87C194.373 198.043 194.626 198.29 194.806 198.61C194.986 198.93 195.076 199.31 195.076 199.75V202.95C195.076 203.383 194.986 203.763 194.806 204.09C194.626 204.41 194.369 204.66 194.036 204.84C193.709 205.013 193.323 205.1 192.876 205.1ZM192.876 204.33C193.276 204.33 193.596 204.203 193.836 203.95C194.083 203.69 194.206 203.357 194.206 202.95V199.75C194.206 199.343 194.083 199.013 193.836 198.76C193.596 198.5 193.276 198.37 192.876 198.37C192.476 198.37 192.153 198.5 191.906 198.76C191.666 199.013 191.546 199.343 191.546 199.75V202.95C191.546 203.357 191.666 203.69 191.906 203.95C192.153 204.203 192.476 204.33 192.876 204.33ZM192.876 201.94C192.696 201.94 192.549 201.883 192.436 201.77C192.329 201.657 192.276 201.507 192.276 201.32C192.276 201.14 192.329 200.997 192.436 200.89C192.549 200.777 192.696 200.72 192.876 200.72C193.056 200.72 193.199 200.777 193.306 200.89C193.419 200.997 193.476 201.14 193.476 201.32C193.476 201.507 193.419 201.657 193.306 201.77C193.199 201.883 193.056 201.94 192.876 201.94Z" fill="#C1C1BE"/>
<path d="M346.76 205.1C346.293 205.1 345.883 205.003 345.53 204.81C345.183 204.61 344.913 204.333 344.72 203.98C344.527 203.627 344.43 203.217 344.43 202.75C344.43 202.383 344.48 202.023 344.58 201.67C344.687 201.317 344.843 200.977 345.05 200.65L346.88 197.7H347.88L345.81 201.02L345.85 201.05C345.977 200.863 346.15 200.72 346.37 200.62C346.59 200.52 346.837 200.47 347.11 200.47C347.51 200.47 347.857 200.563 348.15 200.75C348.443 200.937 348.67 201.2 348.83 201.54C348.99 201.88 349.07 202.283 349.07 202.75C349.07 203.217 348.973 203.627 348.78 203.98C348.587 204.333 348.317 204.61 347.97 204.81C347.63 205.003 347.227 205.1 346.76 205.1ZM346.75 204.3C347.177 204.3 347.52 204.16 347.78 203.88C348.04 203.593 348.17 203.217 348.17 202.75C348.17 202.283 348.04 201.91 347.78 201.63C347.52 201.343 347.177 201.2 346.75 201.2C346.323 201.2 345.98 201.343 345.72 201.63C345.46 201.91 345.33 202.283 345.33 202.75C345.33 203.217 345.46 203.593 345.72 203.88C345.98 204.16 346.323 204.3 346.75 204.3ZM353.746 205.1C353.299 205.1 352.909 205.013 352.576 204.84C352.249 204.66 351.996 204.41 351.816 204.09C351.636 203.763 351.546 203.383 351.546 202.95V199.75C351.546 199.31 351.636 198.93 351.816 198.61C351.996 198.29 352.249 198.043 352.576 197.87C352.909 197.69 353.299 197.6 353.746 197.6C354.199 197.6 354.589 197.69 354.916 197.87C355.243 198.043 355.496 198.29 355.676 198.61C355.856 198.93 355.946 199.31 355.946 199.75V202.95C355.946 203.383 355.856 203.763 355.676 204.09C355.496 204.41 355.239 204.66 354.906 204.84C354.579 205.013 354.193 205.1 353.746 205.1ZM353.746 204.33C354.146 204.33 354.466 204.203 354.706 203.95C354.953 203.69 355.076 203.357 355.076 202.95V199.75C355.076 199.343 354.953 199.013 354.706 198.76C354.466 198.5 354.146 198.37 353.746 198.37C353.346 198.37 353.023 198.5 352.776 198.76C352.536 199.013 352.416 199.343 352.416 199.75V202.95C352.416 203.357 352.536 203.69 352.776 203.95C353.023 204.203 353.346 204.33 353.746 204.33ZM353.746 201.94C353.566 201.94 353.419 201.883 353.306 201.77C353.199 201.657 353.146 201.507 353.146 201.32C353.146 201.14 353.199 200.997 353.306 200.89C353.419 200.777 353.566 200.72 353.746 200.72C353.926 200.72 354.069 200.777 354.176 200.89C354.289 200.997 354.346 201.14 354.346 201.32C354.346 201.507 354.289 201.657 354.176 201.77C354.069 201.883 353.926 201.94 353.746 201.94Z" fill="#C1C1BE"/>
<path d="M506.5 205L508.57 201.68L508.53 201.65C508.403 201.837 508.23 201.98 508.01 202.08C507.79 202.18 507.543 202.23 507.27 202.23C506.877 202.23 506.53 202.137 506.23 201.95C505.937 201.763 505.71 201.5 505.55 201.16C505.39 200.813 505.31 200.41 505.31 199.95C505.31 199.477 505.407 199.067 505.6 198.72C505.793 198.367 506.063 198.093 506.41 197.9C506.757 197.7 507.16 197.6 507.62 197.6C508.087 197.6 508.493 197.7 508.84 197.9C509.193 198.093 509.467 198.367 509.66 198.72C509.853 199.067 509.95 199.477 509.95 199.95C509.95 200.317 509.897 200.677 509.79 201.03C509.69 201.383 509.537 201.723 509.33 202.05L507.5 205H506.5ZM507.63 201.5C508.057 201.5 508.4 201.36 508.66 201.08C508.92 200.793 509.05 200.417 509.05 199.95C509.05 199.483 508.92 199.11 508.66 198.83C508.4 198.543 508.057 198.4 507.63 198.4C507.203 198.4 506.86 198.543 506.6 198.83C506.34 199.11 506.21 199.483 506.21 199.95C506.21 200.417 506.34 200.793 506.6 201.08C506.86 201.36 507.203 201.5 507.63 201.5ZM514.626 205.1C514.179 205.1 513.789 205.013 513.456 204.84C513.129 204.66 512.876 204.41 512.696 204.09C512.516 203.763 512.426 203.383 512.426 202.95V199.75C512.426 199.31 512.516 198.93 512.696 198.61C512.876 198.29 513.129 198.043 513.456 197.87C513.789 197.69 514.179 197.6 514.626 197.6C515.079 197.6 515.469 197.69 515.796 197.87C516.123 198.043 516.376 198.29 516.556 198.61C516.736 198.93 516.826 199.31 516.826 199.75V202.95C516.826 203.383 516.736 203.763 516.556 204.09C516.376 204.41 516.119 204.66 515.786 204.84C515.459 205.013 515.073 205.1 514.626 205.1ZM514.626 204.33C515.026 204.33 515.346 204.203 515.586 203.95C515.833 203.69 515.956 203.357 515.956 202.95V199.75C515.956 199.343 515.833 199.013 515.586 198.76C515.346 198.5 515.026 198.37 514.626 198.37C514.226 198.37 513.903 198.5 513.656 198.76C513.416 199.013 513.296 199.343 513.296 199.75V202.95C513.296 203.357 513.416 203.69 513.656 203.95C513.903 204.203 514.226 204.33 514.626 204.33ZM514.626 201.94C514.446 201.94 514.299 201.883 514.186 201.77C514.079 201.657 514.026 201.507 514.026 201.32C514.026 201.14 514.079 200.997 514.186 200.89C514.299 200.777 514.446 200.72 514.626 200.72C514.806 200.72 514.949 200.777 515.056 200.89C515.169 200.997 515.226 201.14 515.226 201.32C515.226 201.507 515.169 201.657 515.056 201.77C514.949 201.883 514.806 201.94 514.626 201.94Z" fill="#C1C1BE"/>
<path d="M666.4 205V204.18H668.38V198.45L666.4 199.93V198.93L668.05 197.7H669.28V204.18H670.9V205H666.4ZM673.416 205V204.08L675.646 201.71C676.026 201.303 676.303 200.943 676.476 200.63C676.649 200.31 676.736 200.003 676.736 199.71C676.736 199.303 676.623 198.983 676.396 198.75C676.176 198.517 675.873 198.4 675.486 198.4C675.059 198.4 674.723 198.52 674.476 198.76C674.236 199 674.116 199.33 674.116 199.75H673.216C673.229 199.31 673.329 198.93 673.516 198.61C673.709 198.283 673.973 198.033 674.306 197.86C674.646 197.687 675.039 197.6 675.486 197.6C675.926 197.6 676.306 197.687 676.626 197.86C676.953 198.027 677.203 198.267 677.376 198.58C677.549 198.893 677.636 199.267 677.636 199.7C677.636 200.113 677.526 200.523 677.306 200.93C677.086 201.337 676.726 201.8 676.226 202.32L674.426 204.18H677.756V205H673.416ZM682.492 205.1C682.046 205.1 681.656 205.013 681.322 204.84C680.996 204.66 680.742 204.41 680.562 204.09C680.382 203.763 680.292 203.383 680.292 202.95V199.75C680.292 199.31 680.382 198.93 680.562 198.61C680.742 198.29 680.996 198.043 681.322 197.87C681.656 197.69 682.046 197.6 682.492 197.6C682.946 197.6 683.336 197.69 683.662 197.87C683.989 198.043 684.242 198.29 684.422 198.61C684.602 198.93 684.692 199.31 684.692 199.75V202.95C684.692 203.383 684.602 203.763 684.422 204.09C684.242 204.41 683.986 204.66 683.652 204.84C683.326 205.013 682.939 205.1 682.492 205.1ZM682.492 204.33C682.892 204.33 683.212 204.203 683.452 203.95C683.699 203.69 683.822 203.357 683.822 202.95V199.75C683.822 199.343 683.699 199.013 683.452 198.76C683.212 198.5 682.892 198.37 682.492 198.37C682.092 198.37 681.769 198.5 681.522 198.76C681.282 199.013 681.162 199.343 681.162 199.75V202.95C681.162 203.357 681.282 203.69 681.522 203.95C681.769 204.203 682.092 204.33 682.492 204.33ZM682.492 201.94C682.312 201.94 682.166 201.883 682.052 201.77C681.946 201.657 681.892 201.507 681.892 201.32C681.892 201.14 681.946 200.997 682.052 200.89C682.166 200.777 682.312 200.72 682.492 200.72C682.672 200.72 682.816 200.777 682.922 200.89C683.036 200.997 683.092 201.14 683.092 201.32C683.092 201.507 683.036 201.657 682.922 201.77C682.816 201.883 682.672 201.94 682.492 201.94Z" fill="#C1C1BE"/>
<path d="M29.5 227.5L31.4 220.2H32.61L34.5 227.5H33.59L33.11 225.56H30.9L30.42 227.5H29.5ZM31.08 224.8H32.92L32.36 222.55C32.2533 222.123 32.17 221.767 32.11 221.48C32.05 221.193 32.0133 221.007 32 220.92C31.9867 221.007 31.95 221.193 31.89 221.48C31.83 221.767 31.7467 222.12 31.64 222.54L31.08 224.8ZM39.0361 227.6C38.5961 227.6 38.2128 227.517 37.8861 227.35C37.5661 227.183 37.3161 226.943 37.1361 226.63C36.9628 226.31 36.8761 225.933 36.8761 225.5V222.2C36.8761 221.76 36.9628 221.383 37.1361 221.07C37.3161 220.757 37.5661 220.517 37.8861 220.35C38.2128 220.183 38.5961 220.1 39.0361 220.1C39.4761 220.1 39.8561 220.187 40.1761 220.36C40.4961 220.527 40.7428 220.767 40.9161 221.08C41.0894 221.393 41.1761 221.767 41.1761 222.2H40.2761C40.2761 221.787 40.1661 221.47 39.9461 221.25C39.7328 221.023 39.4294 220.91 39.0361 220.91C38.6428 220.91 38.3328 221.02 38.1061 221.24C37.8861 221.46 37.7761 221.777 37.7761 222.19V225.5C37.7761 225.913 37.8861 226.233 38.1061 226.46C38.3328 226.68 38.6428 226.79 39.0361 226.79C39.4294 226.79 39.7328 226.68 39.9461 226.46C40.1661 226.233 40.2761 225.913 40.2761 225.5H41.1761C41.1761 225.927 41.0894 226.3 40.9161 226.62C40.7428 226.933 40.4961 227.177 40.1761 227.35C39.8561 227.517 39.4761 227.6 39.0361 227.6ZM46.0322 227.6C45.5922 227.6 45.2089 227.517 44.8822 227.35C44.5622 227.183 44.3122 226.943 44.1322 226.63C43.9589 226.31 43.8722 225.933 43.8722 225.5V222.2C43.8722 221.76 43.9589 221.383 44.1322 221.07C44.3122 220.757 44.5622 220.517 44.8822 220.35C45.2089 220.183 45.5922 220.1 46.0322 220.1C46.4722 220.1 46.8522 220.187 47.1722 220.36C47.4922 220.527 47.7389 220.767 47.9122 221.08C48.0855 221.393 48.1722 221.767 48.1722 222.2H47.2722C47.2722 221.787 47.1622 221.47 46.9422 221.25C46.7289 221.023 46.4255 220.91 46.0322 220.91C45.6389 220.91 45.3289 221.02 45.1022 221.24C44.8822 221.46 44.7722 221.777 44.7722 222.19V225.5C44.7722 225.913 44.8822 226.233 45.1022 226.46C45.3289 226.68 45.6389 226.79 46.0322 226.79C46.4255 226.79 46.7289 226.68 46.9422 226.46C47.1622 226.233 47.2722 225.913 47.2722 225.5H48.1722C48.1722 225.927 48.0855 226.3 47.9122 226.62C47.7389 226.933 47.4922 227.177 47.1722 227.35C46.8522 227.517 46.4722 227.6 46.0322 227.6ZM52.9883 227.6C52.3083 227.6 51.7883 227.413 51.4283 227.04C51.0683 226.66 50.8883 226.147 50.8883 225.5V220.2H51.7883V225.5C51.7883 225.9 51.8849 226.217 52.0783 226.45C52.2783 226.683 52.5816 226.8 52.9883 226.8C53.3883 226.8 53.6883 226.683 53.8883 226.45C54.0883 226.217 54.1883 225.9 54.1883 225.5V220.2H55.0883V225.5C55.0883 226.153 54.9083 226.667 54.5483 227.04C54.1949 227.413 53.6749 227.6 52.9883 227.6ZM57.9044 227.5V220.2H60.1644C60.5977 220.2 60.9777 220.29 61.3044 220.47C61.631 220.643 61.8844 220.887 62.0644 221.2C62.2444 221.513 62.3344 221.88 62.3344 222.3C62.3344 222.793 62.2044 223.217 61.9444 223.57C61.691 223.923 61.3444 224.167 60.9044 224.3L62.4344 227.5H61.3744L59.9744 224.4H58.8044V227.5H57.9044ZM58.8044 223.59H60.1644C60.5377 223.59 60.8377 223.473 61.0644 223.24C61.291 223 61.4044 222.687 61.4044 222.3C61.4044 221.907 61.291 221.593 61.0644 221.36C60.8377 221.127 60.5377 221.01 60.1644 221.01H58.8044V223.59ZM64.4805 227.5L66.3805 220.2H67.5905L69.4805 227.5H68.5705L68.0905 225.56H65.8805L65.4005 227.5H64.4805ZM66.0605 224.8H67.9005L67.3405 222.55C67.2338 222.123 67.1505 221.767 67.0905 221.48C67.0305 221.193 66.9938 221.007 66.9805 220.92C66.9671 221.007 66.9305 221.193 66.8705 221.48C66.8105 221.767 66.7271 222.12 66.6205 222.54L66.0605 224.8ZM74.0166 227.6C73.5766 227.6 73.1932 227.517 72.8666 227.35C72.5466 227.183 72.2966 226.943 72.1166 226.63C71.9432 226.31 71.8566 225.933 71.8566 225.5V222.2C71.8566 221.76 71.9432 221.383 72.1166 221.07C72.2966 220.757 72.5466 220.517 72.8666 220.35C73.1932 220.183 73.5766 220.1 74.0166 220.1C74.4566 220.1 74.8366 220.187 75.1566 220.36C75.4766 220.527 75.7232 220.767 75.8966 221.08C76.0699 221.393 76.1566 221.767 76.1566 222.2H75.2566C75.2566 221.787 75.1466 221.47 74.9266 221.25C74.7132 221.023 74.4099 220.91 74.0166 220.91C73.6232 220.91 73.3132 221.02 73.0866 221.24C72.8666 221.46 72.7566 221.777 72.7566 222.19V225.5C72.7566 225.913 72.8666 226.233 73.0866 226.46C73.3132 226.68 73.6232 226.79 74.0166 226.79C74.4099 226.79 74.7132 226.68 74.9266 226.46C75.1466 226.233 75.2566 225.913 75.2566 225.5H76.1566C76.1566 225.927 76.0699 226.3 75.8966 226.62C75.7232 226.933 75.4766 227.177 75.1566 227.35C74.8366 227.517 74.4566 227.6 74.0166 227.6ZM80.5227 227.5V224.77L78.3227 220.2H79.2527L80.7027 223.2C80.7827 223.367 80.846 223.51 80.8927 223.63C80.9393 223.743 80.9693 223.827 80.9827 223.88C80.996 223.827 81.026 223.743 81.0727 223.63C81.126 223.51 81.1927 223.367 81.2727 223.2L82.6927 220.2H83.6227L81.4227 224.77V227.5H80.5227ZM92.8848 227.5V220.2H94.7748C95.2482 220.2 95.6548 220.29 95.9948 220.47C96.3415 220.65 96.6082 220.903 96.7948 221.23C96.9882 221.557 97.0848 221.943 97.0848 222.39V225.3C97.0848 225.747 96.9882 226.137 96.7948 226.47C96.6082 226.797 96.3415 227.05 95.9948 227.23C95.6548 227.41 95.2482 227.5 94.7748 227.5H92.8848ZM93.7848 226.7H94.7748C95.2148 226.7 95.5582 226.577 95.8048 226.33C96.0582 226.083 96.1848 225.74 96.1848 225.3V222.39C96.1848 221.957 96.0582 221.617 95.8048 221.37C95.5582 221.123 95.2148 221 94.7748 221H93.7848V226.7ZM99.8809 227.5V220.2H102.141C102.574 220.2 102.954 220.29 103.281 220.47C103.608 220.643 103.861 220.887 104.041 221.2C104.221 221.513 104.311 221.88 104.311 222.3C104.311 222.793 104.181 223.217 103.921 223.57C103.668 223.923 103.321 224.167 102.881 224.3L104.411 227.5H103.351L101.951 224.4H100.781V227.5H99.8809ZM100.781 223.59H102.141C102.514 223.59 102.814 223.473 103.041 223.24C103.268 223 103.381 222.687 103.381 222.3C103.381 221.907 103.268 221.593 103.041 221.36C102.814 221.127 102.514 221.01 102.141 221.01H100.781V223.59ZM108.957 227.6C108.517 227.6 108.137 227.517 107.817 227.35C107.504 227.183 107.26 226.943 107.087 226.63C106.92 226.31 106.837 225.933 106.837 225.5V222.2C106.837 221.76 106.92 221.383 107.087 221.07C107.26 220.757 107.504 220.517 107.817 220.35C108.137 220.183 108.517 220.1 108.957 220.1C109.397 220.1 109.774 220.183 110.087 220.35C110.407 220.517 110.65 220.757 110.817 221.07C110.99 221.383 111.077 221.757 111.077 222.19V225.5C111.077 225.933 110.99 226.31 110.817 226.63C110.65 226.943 110.407 227.183 110.087 227.35C109.774 227.517 109.397 227.6 108.957 227.6ZM108.957 226.79C109.35 226.79 109.65 226.68 109.857 226.46C110.07 226.233 110.177 225.913 110.177 225.5V222.2C110.177 221.787 110.07 221.47 109.857 221.25C109.65 221.023 109.35 220.91 108.957 220.91C108.57 220.91 108.27 221.023 108.057 221.25C107.844 221.47 107.737 221.787 107.737 222.2V225.5C107.737 225.913 107.844 226.233 108.057 226.46C108.27 226.68 108.57 226.79 108.957 226.79ZM113.873 227.5V220.2H116.223C116.676 220.2 117.07 220.29 117.403 220.47C117.736 220.643 117.993 220.89 118.173 221.21C118.36 221.53 118.453 221.91 118.453 222.35C118.453 222.783 118.36 223.163 118.173 223.49C117.993 223.81 117.736 224.06 117.403 224.24C117.07 224.413 116.676 224.5 116.223 224.5H114.773V227.5H113.873ZM114.773 223.69H116.223C116.616 223.69 116.93 223.57 117.163 223.33C117.403 223.083 117.523 222.757 117.523 222.35C117.523 221.937 117.403 221.61 117.163 221.37C116.93 221.13 116.616 221.01 116.223 221.01H114.773V223.69ZM122.949 227.6C122.509 227.6 122.129 227.517 121.809 227.35C121.496 227.183 121.253 226.943 121.079 226.63C120.913 226.31 120.829 225.933 120.829 225.5V222.2C120.829 221.76 120.913 221.383 121.079 221.07C121.253 220.757 121.496 220.517 121.809 220.35C122.129 220.183 122.509 220.1 122.949 220.1C123.389 220.1 123.766 220.183 124.079 220.35C124.399 220.517 124.643 220.757 124.809 221.07C124.983 221.383 125.069 221.757 125.069 222.19V225.5C125.069 225.933 124.983 226.31 124.809 226.63C124.643 226.943 124.399 227.183 124.079 227.35C123.766 227.517 123.389 227.6 122.949 227.6ZM122.949 226.79C123.343 226.79 123.643 226.68 123.849 226.46C124.063 226.233 124.169 225.913 124.169 225.5V222.2C124.169 221.787 124.063 221.47 123.849 221.25C123.643 221.023 123.343 220.91 122.949 220.91C122.563 220.91 122.263 221.023 122.049 221.25C121.836 221.47 121.729 221.787 121.729 222.2V225.5C121.729 225.913 121.836 226.233 122.049 226.46C122.263 226.68 122.563 226.79 122.949 226.79ZM127.895 227.5V220.19H132.195V221.01H128.775V223.44H131.935V224.26H128.795V227.5H127.895ZM134.891 227.5V220.19H139.191V221.01H135.771V223.44H138.931V224.26H135.791V227.5H134.891Z" fill="#C1C1BE"/>
<path d="M456.42 227.5V220.2H458.31C458.783 220.2 459.19 220.29 459.53 220.47C459.877 220.65 460.143 220.903 460.33 221.23C460.523 221.557 460.62 221.943 460.62 222.39V225.3C460.62 225.747 460.523 226.137 460.33 226.47C460.143 226.797 459.877 227.05 459.53 227.23C459.19 227.41 458.783 227.5 458.31 227.5H456.42ZM457.32 226.7H458.31C458.75 226.7 459.093 226.577 459.34 226.33C459.593 226.083 459.72 225.74 459.72 225.3V222.39C459.72 221.957 459.593 221.617 459.34 221.37C459.093 221.123 458.75 221 458.31 221H457.32V226.7ZM462.996 227.5L464.896 220.2H466.106L467.996 227.5H467.086L466.606 225.56H464.396L463.916 227.5H462.996ZM464.576 224.8H466.416L465.856 222.55C465.749 222.123 465.666 221.767 465.606 221.48C465.546 221.193 465.509 221.007 465.496 220.92C465.483 221.007 465.446 221.193 465.386 221.48C465.326 221.767 465.243 222.12 465.136 222.54L464.576 224.8ZM472.042 227.5V224.77L469.842 220.2H470.772L472.222 223.2C472.302 223.367 472.366 223.51 472.412 223.63C472.459 223.743 472.489 223.827 472.502 223.88C472.516 223.827 472.546 223.743 472.592 223.63C472.646 223.51 472.712 223.367 472.792 223.2L474.212 220.2H475.142L472.942 224.77V227.5H472.042ZM479.528 227.6C479.048 227.6 478.635 227.52 478.288 227.36C477.948 227.2 477.685 226.97 477.498 226.67C477.312 226.37 477.215 226.013 477.208 225.6H478.108C478.108 225.967 478.232 226.257 478.478 226.47C478.732 226.683 479.082 226.79 479.528 226.79C479.948 226.79 480.275 226.687 480.508 226.48C480.748 226.273 480.868 225.987 480.868 225.62C480.868 225.327 480.788 225.07 480.628 224.85C480.475 224.63 480.252 224.477 479.958 224.39L478.968 224.08C478.468 223.927 478.082 223.67 477.808 223.31C477.542 222.95 477.408 222.527 477.408 222.04C477.408 221.647 477.495 221.307 477.668 221.02C477.848 220.727 478.098 220.5 478.418 220.34C478.738 220.173 479.115 220.09 479.548 220.09C480.188 220.09 480.702 220.27 481.088 220.63C481.475 220.983 481.672 221.457 481.678 222.05H480.778C480.778 221.69 480.668 221.41 480.448 221.21C480.235 221.003 479.932 220.9 479.538 220.9C479.152 220.9 478.848 220.993 478.628 221.18C478.415 221.367 478.308 221.627 478.308 221.96C478.308 222.26 478.388 222.52 478.548 222.74C478.708 222.96 478.938 223.117 479.238 223.21L480.238 223.53C480.725 223.683 481.102 223.943 481.368 224.31C481.635 224.677 481.768 225.107 481.768 225.6C481.768 226 481.675 226.35 481.488 226.65C481.302 226.95 481.038 227.183 480.698 227.35C480.365 227.517 479.975 227.6 479.528 227.6ZM490.98 227.5L492.88 220.2H494.09L495.98 227.5H495.07L494.59 225.56H492.38L491.9 227.5H490.98ZM492.56 224.8H494.4L493.84 222.55C493.734 222.123 493.65 221.767 493.59 221.48C493.53 221.193 493.494 221.007 493.48 220.92C493.467 221.007 493.43 221.193 493.37 221.48C493.31 221.767 493.227 222.12 493.12 222.54L492.56 224.8ZM498.427 227.5V220.19H502.727V221.01H499.307V223.44H502.467V224.26H499.327V227.5H498.427ZM507.023 227.5V221.01H505.023V220.19H509.923V221.01H507.923V227.5H507.023ZM512.469 227.5V220.2H516.669V221.02H513.359V223.28H516.319V224.09H513.359V226.68H516.669V227.5H512.469ZM519.385 227.5V220.2H521.645C522.078 220.2 522.458 220.29 522.785 220.47C523.112 220.643 523.365 220.887 523.545 221.2C523.725 221.513 523.815 221.88 523.815 222.3C523.815 222.793 523.685 223.217 523.425 223.57C523.172 223.923 522.825 224.167 522.385 224.3L523.915 227.5H522.855L521.455 224.4H520.285V227.5H519.385ZM520.285 223.59H521.645C522.018 223.59 522.318 223.473 522.545 223.24C522.772 223 522.885 222.687 522.885 222.3C522.885 221.907 522.772 221.593 522.545 221.36C522.318 221.127 522.018 221.01 521.645 221.01H520.285V223.59ZM533.507 227.5V226.68H534.997V221.02H533.507V220.2H537.407V221.02H535.917V226.68H537.407V227.5H533.507ZM540.353 227.5V220.2H541.553L543.783 226.45C543.77 226.283 543.753 226.08 543.733 225.84C543.72 225.593 543.706 225.337 543.693 225.07C543.686 224.797 543.683 224.54 543.683 224.3V220.2H544.553V227.5H543.353L541.133 221.25C541.146 221.41 541.16 221.613 541.173 221.86C541.186 222.1 541.196 222.357 541.203 222.63C541.216 222.897 541.223 223.153 541.223 223.4V227.5H540.353ZM547.499 227.5V226.68H548.989V221.02H547.499V220.2H551.399V221.02H549.909V226.68H551.399V227.5H547.499ZM555.995 227.5V221.01H553.995V220.19H558.895V221.01H556.895V227.5H555.995ZM561.491 227.5V226.68H562.981V221.02H561.491V220.2H565.391V221.02H563.901V226.68H565.391V227.5H561.491ZM567.938 227.5L569.838 220.2H571.048L572.938 227.5H572.028L571.548 225.56H569.338L568.858 227.5H567.938ZM569.518 224.8H571.358L570.798 222.55C570.691 222.123 570.608 221.767 570.548 221.48C570.488 221.193 570.451 221.007 570.438 220.92C570.424 221.007 570.388 221.193 570.328 221.48C570.268 221.767 570.184 222.12 570.077 222.54L569.518 224.8ZM575.584 227.5V220.2H576.484V226.68H579.784V227.5H575.584ZM589.476 227.5V226.68H590.966V221.02H589.476V220.2H593.376V221.02H591.886V226.68H593.376V227.5H589.476ZM596.342 227.5V220.2H598.232C598.705 220.2 599.112 220.29 599.452 220.47C599.799 220.65 600.065 220.903 600.252 221.23C600.445 221.557 600.542 221.943 600.542 222.39V225.3C600.542 225.747 600.445 226.137 600.252 226.47C600.065 226.797 599.799 227.05 599.452 227.23C599.112 227.41 598.705 227.5 598.232 227.5H596.342ZM597.242 226.7H598.232C598.672 226.7 599.015 226.577 599.262 226.33C599.515 226.083 599.642 225.74 599.642 225.3V222.39C599.642 221.957 599.515 221.617 599.262 221.37C599.015 221.123 598.672 221 598.232 221H597.242V226.7ZM603.418 227.5V220.2H607.618V221.02H604.308V223.28H607.268V224.09H604.308V226.68H607.618V227.5H603.418ZM610.314 227.5V220.2H611.514L613.744 226.45C613.731 226.283 613.714 226.08 613.694 225.84C613.681 225.593 613.667 225.337 613.654 225.07C613.647 224.797 613.644 224.54 613.644 224.3V220.2H614.514V227.5H613.314L611.094 221.25C611.107 221.41 611.121 221.613 611.134 221.86C611.147 222.1 611.157 222.357 611.164 222.63C611.177 222.897 611.184 223.153 611.184 223.4V227.5H610.314ZM618.96 227.5V221.01H616.96V220.19H621.86V221.01H619.86V227.5H618.96ZM624.456 227.5V226.68H625.946V221.02H624.456V220.2H628.356V221.02H626.866V226.68H628.356V227.5H624.456ZM631.352 227.5V220.19H635.652V221.01H632.232V223.44H635.392V224.26H632.252V227.5H631.352ZM638.448 227.5V226.68H639.938V221.02H638.448V220.2H642.348V221.02H640.858V226.68H642.348V227.5H638.448ZM647.435 227.6C646.995 227.6 646.611 227.517 646.285 227.35C645.965 227.183 645.715 226.943 645.535 226.63C645.361 226.31 645.275 225.933 645.275 225.5V222.2C645.275 221.76 645.361 221.383 645.535 221.07C645.715 220.757 645.965 220.517 646.285 220.35C646.611 220.183 646.995 220.1 647.435 220.1C647.875 220.1 648.255 220.187 648.575 220.36C648.895 220.527 649.141 220.767 649.315 221.08C649.488 221.393 649.575 221.767 649.575 222.2H648.675C648.675 221.787 648.565 221.47 648.345 221.25C648.131 221.023 647.828 220.91 647.435 220.91C647.041 220.91 646.731 221.02 646.505 221.24C646.285 221.46 646.175 221.777 646.175 222.19V225.5C646.175 225.913 646.285 226.233 646.505 226.46C646.731 226.68 647.041 226.79 647.435 226.79C647.828 226.79 648.131 226.68 648.345 226.46C648.565 226.233 648.675 225.913 648.675 225.5H649.575C649.575 225.927 649.488 226.3 649.315 226.62C649.141 226.933 648.895 227.177 648.575 227.35C648.255 227.517 647.875 227.6 647.435 227.6ZM651.891 227.5L653.791 220.2H655.001L656.891 227.5H655.981L655.501 225.56H653.291L652.811 227.5H651.891ZM653.471 224.8H655.311L654.751 222.55C654.644 222.123 654.561 221.767 654.501 221.48C654.441 221.193 654.404 221.007 654.391 220.92C654.377 221.007 654.341 221.193 654.281 221.48C654.221 221.767 654.137 222.12 654.031 222.54L653.471 224.8ZM660.937 227.5V221.01H658.937V220.19H663.837V221.01H661.837V227.5H660.937ZM666.433 227.5V226.68H667.923V221.02H666.433V220.2H670.333V221.02H668.843V226.68H670.333V227.5H666.433ZM675.379 227.6C674.939 227.6 674.559 227.517 674.239 227.35C673.926 227.183 673.682 226.943 673.509 226.63C673.342 226.31 673.259 225.933 673.259 225.5V222.2C673.259 221.76 673.342 221.383 673.509 221.07C673.682 220.757 673.926 220.517 674.239 220.35C674.559 220.183 674.939 220.1 675.379 220.1C675.819 220.1 676.196 220.183 676.509 220.35C676.829 220.517 677.072 220.757 677.239 221.07C677.412 221.383 677.499 221.757 677.499 222.19V225.5C677.499 225.933 677.412 226.31 677.239 226.63C677.072 226.943 676.829 227.183 676.509 227.35C676.196 227.517 675.819 227.6 675.379 227.6ZM675.379 226.79C675.772 226.79 676.072 226.68 676.279 226.46C676.492 226.233 676.599 225.913 676.599 225.5V222.2C676.599 221.787 676.492 221.47 676.279 221.25C676.072 221.023 675.772 220.91 675.379 220.91C674.992 220.91 674.692 221.023 674.479 221.25C674.266 221.47 674.159 221.787 674.159 222.2V225.5C674.159 225.913 674.266 226.233 674.479 226.46C674.692 226.68 674.992 226.79 675.379 226.79ZM680.275 227.5V220.2H681.475L683.705 226.45C683.692 226.283 683.675 226.08 683.655 225.84C683.642 225.593 683.628 225.337 683.615 225.07C683.608 224.797 683.605 224.54 683.605 224.3V220.2H684.475V227.5H683.275L681.055 221.25C681.068 221.41 681.082 221.613 681.095 221.86C681.108 222.1 681.118 222.357 681.125 222.63C681.138 222.897 681.145 223.153 681.145 223.4V227.5H680.275Z" fill="#C1C1BE"/>
<defs>
<linearGradient id="paint0_linear_1_249" x1="-3.4376" y1="27.2015" x2="765.238" y2="-150.296" gradientUnits="userSpaceOnUse">
<stop stop-color="#F35B22" stop-opacity="0"/>
<stop offset="0.0506713" stop-color="#F35B22"/>
<stop offset="0.94928" stop-color="#F35B22"/>
<stop offset="0.998677" stop-color="#F35B22"/>
</linearGradient>
<linearGradient id="paint1_linear_1_249" x1="-2.69233" y1="61.3174" x2="733.123" y2="-77.5944" gradientUnits="userSpaceOnUse">
<stop offset="0.00617269" stop-color="#907FDA" stop-opacity="0"/>
<stop offset="0.0789917" stop-color="#907FDA"/>
<stop offset="0.75" stop-color="#907FDA"/>
<stop offset="0.97" stop-color="#907FDA"/>
</linearGradient>
</defs>
</svg>
